<?xml version="1.0" encoding="utf-8"?>
<!-- Generator: Adobe Illustrator 18.0.0, SVG Export Plug-In . SVG Version: 6.00 Build 0)  -->
<!DOCTYPE svg PUBLIC "-//W3C//DTD SVG 1.1//EN" "http://www.w3.org/Graphics/SVG/1.1/DTD/svg11.dtd">
<svg version="1.1" id="Layer_1" xmlns="http://www.w3.org/2000/svg" xmlns:xlink="http://www.w3.org/1999/xlink" x="0px" y="0px"
	 viewBox="0 0 230 58" enable-background="new 0 0 230 58" xml:space="preserve">
<g>
	<g>
		<path fill="#FFFFFF" d="M10.4,43.8c0.1-0.1,2.6,10,16.6,8.2c-2.7-6.6-11.3-10.9-13.2-11c0.4-0.3,2.8-2.1,3.2-2.3
			c-0.5,1.8,7.5,9.2,13.7,7.2c-1.7-5-8.5-9.3-10.2-9.4c0.7-0.4,1.5-1,2.2-1.3c-0.4,1,5.5,6.7,11.8,6.3c0.1-3-6.8-8.7-8.1-8.2
			c0.6-0.3,1.6-0.9,1.9-1c0.9,2.1,6.7,6.5,10.7,5.7c-3.3-6.9-7.4-7.3-7.5-7.3c1.1-0.5,1.8-0.9,2-0.9c0,1.9,5.7,6.1,9.7,5.1
			c-0.8-3.1-4-6.1-7-6.4c0.7-0.3,1.5-0.7,2.1-1c-0.3,0.6,4.5,4.6,9.1,4.4c-2.2-5.4-5.2-5.5-6.3-5.7c0.6-0.3,1.3-0.7,1.9-1
			c0.3,0.7,2.8,4.2,8.8,3.3c-1.5-3.3-4.7-4.4-6.4-4.5c0.9-0.5,1.5-0.7,2.1-1.1c0.4,0.5,1.9,3.7,8.1,2.5c-1.3-3.1-4.1-3.8-5.2-4.1
			c0.5-0.3,1.1-0.6,1.5-0.9c0.4,0.7,3.5,2.9,6.9,2c-0.6-1.9-3-3-5.2-3.1c0.9-0.6,1.8-1.2,1.8-1.2c0.3,0.7,2.1,2.5,6.4,1.3
			c-1.4-2.7-4.9-2.3-4.9-2.3c0.8-0.6,1.1-0.8,1.7-1.3c0.1,0,2,2.8,5.5,0.9c-1-1.6-2.6-2.4-4.2-2c0.5-0.5,0.9-0.8,1.3-1.2
			c-0.2,0.4,2.6,1.8,5,0c-1.1-1.1-2.4-1.4-3.8-1.3c0.3-0.4,0.3-0.4,0.7-0.8c0,0,2.1,1.6,4.2-0.4c-1.6-1.2-3.5-0.4-3.6-0.4l0.8-1.2
			c0.3,0.5,2.6,0.9,3.4-0.7C67.3,7.8,65.2,8,65,8.1c0.1-0.1,0.2-0.5,0.4-0.7c4.3,0.5,2.8-4.4,1.8-7.2C51.2,24.6,29.8,7.3,3.7,22.7
			c-1.2,3.2-1.7,6.5-1.3,9.9c0,0.3,0,0.6,0.2,1.4c-0.1,0.2,0.3,2.1,1,4.2c0.5,1.5,1.1,2.5,1.7,4c0.4-0.3,0.8-0.6,1.1-0.9
			c-1.2-1.7-5.1-11.7-0.2-17.6c4.6-0.1,5.1,13.2,4.4,14.6c0,0,2.2-1.4,3-1.9c-1-0.4-4.5-11.9,1.4-16.7c0,0,5.2,2,3,14.1
			c0.9-0.6,2.1-1.1,3.4-1.7c-0.7-1.2-4.2-9.9,1.5-14.4c3.1,1.3,2.9,10.8,1.7,12.8c1-0.5,2-1,3-1.5c-1.8-0.8-1.7-9.8,1.4-12.2
			c3.4,3.2,2.6,8.5,1.7,10.9c0,0,2.5-1.1,2.5-1.1c-2-3.8-1.1-8.4,1.1-10.2c1.7,1.1,2.1,4.1,1.3,9.2c0.7-0.3,1.1-0.5,1.8-0.8
			c-0.4-0.8-1.6-6,1.4-8.8c2.7,1.3,1.7,7,1.5,7.6c0,0,1.6-0.6,1.5-0.7c-0.5-1.1-0.9-5.4,1.6-7.4c1,0.7,2,2.6,1.1,6.3
			c0.6-0.3,1.2-0.5,1.8-0.8c-0.8-0.9-0.2-4.7,1-6.2c1.5,0.7,2.1,3.9,1.6,5c0.4-0.2,0.9-0.4,1.5-0.8c-0.5-0.8-0.6-4.2,0.8-5.2
			c1.4,1,1.3,3.5,1.2,4.1c0.4-0.3,1.6-0.9,1.6-0.9c-0.8-0.7-1.2-3,0.5-4.5c1.5,0.3,1.5,3.1,1.4,3.3c0.6-0.4,1.5-1,2-1.4
			c-1.4-0.3-1.2-2.5-0.5-3.5c0.9,0.2,1.5,0.7,1.8,2.3c0.3-0.3,1.2-1,1.4-1.3c-0.8-0.1-1.8-1.9-0.6-3c0.4,0.2,1.6,0.7,1.7,1.9
			c0.2-0.1,0.8-0.9,0.9-1c-0.6-0.2-1.2-1.9-0.6-2.7c0.8-0.1,1.5,1,1.6,1.4l0.8-1.1c-0.4-0.4-1.3-1.4-0.5-2.3c0.9,0,1.2,0.7,1.4,1.3
			C56.3,24.2,20.6,27.2,1.9,48c0,0-1.9,2-1.9,3l0,7l0.4,0C1.3,55.4,4.3,48.7,10.4,43.8"/>
	</g>
	<g>
		<path fill="#FFFFFF" d="M77.2,0.2c-1.6,0-2.8,1.4-2.8,3c0,1.6,1.4,2.9,3,2.8c1.6,0,2.8-1.4,2.8-2.9C80.2,1.4,78.8,0.1,77.2,0.2
			L77.2,0.2z M79.8,3c0,1.4-1.1,2.6-2.5,2.6c-1.4,0-2.6-1.1-2.6-2.5c0-1.4,1.1-2.6,2.5-2.6C78.6,0.5,79.8,1.6,79.8,3L79.8,3z"/>
		<polygon fill="#FFFFFF" points="76.9,2.5 76.9,2.1 75.4,2.1 75.4,2.5 76,2.5 76,4.2 76.4,4.2 76.4,2.5 76.9,2.5 		"/>
		<polygon fill="#FFFFFF" points="79,4.2 79,2.1 78.7,2.1 78,3.3 77.4,2.1 77,2.1 77,4.2 77.4,4.2 77.4,2.9 77.9,3.7 78.2,3.7 
			78.7,2.9 78.7,4.2 79,4.2 		"/>
	</g>
</g>
<g>
	<g>
		<path fill="#FFFFFF" d="M223.5,29.7h-6.3V12.5h6.3c1.9,0,3.5,0.6,4.6,1.7c1.8,1.8,1.8,4,1.8,6.3c0,0.2,0,1.1,0,1.3
			c0,2.4,0,4.6-1.8,6.4C227,29.2,225.4,29.7,223.5,29.7L223.5,29.7z M220.7,26.6h2.5c1.1,0,1.9-0.3,2.4-1c0.6-0.7,0.7-2,0.7-4.5
			c0-2.7-0.1-3.7-0.7-4.4c-0.6-0.7-1.4-1-2.4-1h-2.5V26.6L220.7,26.6z"/>
		<path fill="#FFFFFF" d="M151.9,29.7h-11.4c0,0,0-9.7,0-11.6c0-1.2,0-3.5,0.5-4.3c0.6-0.9,1.4-1.4,2.8-1.4c1.2,0,8.1,0,8.1,0v3.1
			c0,0-5.7,0-6.2,0c-0.4,0-0.9,0.1-1.3,0.4c-0.3,0.3-0.5,1-0.5,1.5c0,0.6,0,1.9,0,1.9h6.8v3.1H144v4h7.9V29.7L151.9,29.7z"/>
		<path fill="#FFFFFF" d="M97.5,12.5H86c0,0,0,9.7,0,11.6c0,1.2,0,3.5,0.5,4.3c0.6,0.9,1.4,1.4,2.8,1.4c1.2,0,8.1,0,8.1,0v-3.1
			c0,0-5.7,0-6.2,0c-0.4,0-0.9-0.1-1.3-0.4c-0.3-0.3-0.5-1-0.5-1.5c0-0.6,0-1.9,0-1.9h6.8v-3.1h-6.8v-4h7.9V12.5L97.5,12.5z"/>
		<path fill="#FFFFFF" d="M174.4,26.6h7.8v3.1l0,0h-11.3v-15v0c0-1.1-0.3-1.6-1.1-2.1l0,0c0,0,0,0,0-0.1c0,0,0-0.1,0.1-0.1l2.1,0
			c1.4,0,2.5,0.4,2.6,3.7V26.6z"/>
		<polygon fill="#FFFFFF" points="82.5,29.7 79.4,29.7 72.7,19.4 72.7,29.7 69.2,29.7 69.2,12.5 72.3,12.5 79,22.8 79,12.5 
			82.5,12.5 82.5,29.7 		"/>
		<path fill="#FFFFFF" d="M210.1,20.2v-5.8c-0.1-0.9-0.3-1.4-1-1.7l0,0c0,0,0,0,0-0.1c0,0,0-0.1,0.1-0.1h2c1.6-0.1,2.4,1.2,2.5,3.6
			v13.7l0,0h-3.1l-6.7-10.3v10.3h-3.5V12.5h3.1l6.7,10.3V20.2z"/>
		<path fill="#FFFFFF" d="M192.9,14.2c-0.4-1.1-1.1-1.7-2.1-1.7l-1.3,0l-6.3,17.3h3.6l1-3h6l1,3h3.6L192.9,14.2z M188.9,23.8
			l2.1-5.9l2,5.9H188.9z"/>
		<path fill="#FFFFFF" d="M163.4,14.2c-0.4-1.1-1.1-1.7-2.1-1.7l-1.3,0l-6.3,17.3h3.7l1-3h6l1,3h3.7L163.4,14.2z M159.4,23.8
			l2.1-5.9l2,5.9H159.4z"/>
		<path fill="#FFFFFF" d="M106.1,23.1l3.1-10.6h2.6l3.1,10.6l2.6-10.6h3.6l-4.6,17.3l0,0h-2.9l-3.1-10.2l-3.1,10.2h-2.9l-4-14.8
			c-0.4-1.4-0.8-1.9-1.8-2.3l0,0c0,0,0,0,0-0.1c0,0,0-0.1,0.1-0.1h2.3c1.7,0,2.6,0.8,3,2.4L106.1,23.1z"/>
		<path fill="#FFFFFF" d="M136.7,17c0.6-1.1,1.1-2.5,1.1-3.6v-0.9h-11.1v3.1h6.9L126.4,27v2.8h11.4v-3.1h-7.3L136.7,17z"/>
	</g>
	<g>
		<polygon fill="#8E9090" points="147.2,52.2 144.4,52.2 144.4,44.4 141.9,49.4 140,49.4 137.5,44.4 137.5,52.2 134.7,52.2 
			134.7,38.4 137.4,38.4 140.9,45.7 144.5,38.4 147.2,38.4 147.2,52.2 		"/>
		<path fill="#8E9090" d="M85,52.3c-1.5,0-2.7-0.5-3.8-1.5c-1.4-1.4-1.4-3-1.4-5.3v-0.2v-0.2c0-2.3,0-4,1.4-5.3c1-1,2.3-1.5,3.8-1.5
			c1.5,0,2.7,0.5,3.7,1.5c1.4,1.4,1.4,3.1,1.4,5.4v0.1v0.1c0,2.3,0,4-1.4,5.4C87.7,51.9,86.5,52.3,85,52.3L85,52.3z M85,40.8
			c-0.7,0-1.3,0.3-1.7,0.7c-0.5,0.5-0.6,1.1-0.6,3.8c0,2.7,0.1,3.3,0.6,3.8c0.4,0.5,1,0.7,1.7,0.7c0.7,0,1.3-0.3,1.7-0.7
			c0.5-0.6,0.7-1.2,0.7-3.8c0-2.7-0.2-3.3-0.7-3.8C86.3,41,85.7,40.8,85,40.8L85,40.8z"/>
		<path fill="#8E9090" d="M116.1,52.2h-3.2l-2.7-5.5h-1.8v5.5h-2.8V38.4h5.4c2.6,0,4.5,1.8,4.5,4.3c0,1.7-0.9,3-2.5,3.6L116.1,52.2
			L116.1,52.2z M108.4,44.4h2.5c1.1,0,1.9-0.7,1.9-1.8c0-1-0.8-1.7-1.9-1.7h-2.5V44.4L108.4,44.4z"/>
		<path fill="#8E9090" d="M127.5,52.3c-2.3,0-3.8-0.6-5-1.8l0,0l1.8-1.8l0,0c0.8,0.8,1.8,1.1,3.3,1.1c1.5,0,2.4-0.6,2.4-1.6
			c0-0.5-0.1-0.9-0.4-1.1c-0.3-0.3-0.6-0.4-1.2-0.5l-1.7-0.2c-1.2-0.2-2.1-0.6-2.7-1.2c-0.7-0.7-1-1.6-1-2.7c0-2.6,1.9-4.2,4.8-4.2
			c1.9,0,3.3,0.5,4.5,1.6l0,0l-1.8,1.8l0,0c-0.9-0.8-1.9-0.9-2.8-0.9c-1.3,0-2.1,0.7-2.1,1.7c0,0.4,0.1,0.7,0.4,0.9
			c0.3,0.3,0.7,0.5,1.2,0.5l1.6,0.2c1.2,0.2,2,0.5,2.6,1.1c0.7,0.7,1.1,1.7,1.1,3C132.6,50.6,130.5,52.3,127.5,52.3L127.5,52.3z"/>
		<polygon fill="#8E9090" points="75.6,52.2 72.8,52.2 72.8,40.9 69.2,40.9 69.2,38.4 79.2,38.4 79.2,40.9 75.6,40.9 75.6,52.2 		
			"/>
		<path fill="#8E9090" d="M97.6,52.3c-3,0-5.1-2.1-5.1-4.9v-9.1h2.8v9c0,1.5,0.9,2.5,2.3,2.5c1.4,0,2.3-1,2.3-2.5v-9h2.8v9.1
			C102.7,50.3,100.5,52.3,97.6,52.3L97.6,52.3z"/>
		<path fill="#8E9090" d="M118.2,42v-1.8c0-0.9-0.3-1.3-0.9-1.7l0,0c0,0,0,0,0,0c0,0,0-0.1,0.1-0.1h1.6c1.1,0,2,0.4,2,3v10.8l0,0
			h-2.8L118.2,42z"/>
	</g>
</g>
</svg>
