<?xml version="1.0" encoding="utf-8"?>
<!DOCTYPE svg PUBLIC "-//W3C//DTD SVG 1.1//EN" "http://www.w3.org/Graphics/SVG/1.1/DTD/svg11.dtd">
<svg version="1.1" id="Layer_1" xmlns="http://www.w3.org/2000/svg" xmlns:xlink="http://www.w3.org/1999/xlink" x="0px" y="0px"
	 viewBox="0 0 195 26" enable-background="new 0 0 195 26" xml:space="preserve">
<g>
	<path fill="#000000" d="M97.2,22.5c-10.2-0.6-20.5-1.2-30.7-1.6c-5.7-0.2-11.3-0.1-17,0.1c-7.8,0.2-15.6,0.6-23.4,1.1
		C18,22.6,9.9,23.5,1.8,24.2c-0.9,0.1-1.2,0.5-0.8,1.4c38.7-4.4,77.3-4.3,116.1,0c0-0.5,0-0.8,0-1.3c-0.4-0.1-0.7-0.1-1-0.2
		C109.8,23.6,103.5,22.9,97.2,22.5z"/>
	<path fill="#000000" d="M131.3,15.1c-1.1-0.2-2.3-0.1-3.5-0.2c-0.3,0-0.6-0.2-0.8-0.5c-0.1-0.1,0.2-0.6,0.4-0.7
		c0.8-0.3,1.6-0.7,2.5-0.8c2.5-0.3,4.1-2.3,3.6-4.7c-0.1-0.5-0.3-1-0.5-1.3c1-0.2,1.9-0.5,3-0.7c-0.6-0.7-1-1.2-1.4-1.7
		c-1.2,0.9-2.5,0.8-3.8,0.5c-1.1-0.3-2.2-0.4-3.3-0.3c-2.5,0.2-4.1,2.2-3.9,4.5c0.1,1.7,1.2,2.8,2.8,3.4c-0.6,0.3-1,0.5-1.4,0.8
		c-0.7,0.4-1.1,1.2-0.8,1.9c0.3,0.5,0.9,1,1.4,1.2c0.5,0.2,1.2,0.2,1.8,0.2c1,0.1,2,0.1,3,0.3c0.8,0.2,1.4,0.7,1.5,1.6
		c0,0.9-0.4,1.6-1.3,1.9c-0.7,0.2-1.5,0.4-2.2,0.3c-2.1,0-2.9-0.9-2.7-3c-0.5,0-0.9,0.1-1.4,0.1c-0.7,0-1,0.3-1,1
		c-0.1,1.4,0.4,2.4,1.7,3c2.3,1.1,4.8,1.2,7.2,0.2c1.7-0.7,2.5-2.3,2.3-4.1C134.2,16.3,133.2,15.3,131.3,15.1z M126.3,8.8
		c0-1.6,0.8-2.4,2.4-2.4c1.5,0,2.3,0.8,2.3,2.4c0,1.6-0.8,2.4-2.4,2.4C127,11.2,126.3,10.4,126.3,8.8z"/>
	<path fill="#000000" d="M27,17.1c0.2,0.7,0.6,0.7,1.2,0.8c1,0.1,1.6-0.2,1.7-1.3c0-0.4,0.2-0.8,0.3-1.2c0.6-2.4,1.3-4.8,1.9-7.2
		c0.1,0,0.1,0,0.2,0c0.9,3.2,1.7,6.4,2.6,9.7c0.4,0,0.7,0,1,0c1.1,0.2,1.5-0.3,1.7-1.3c0.7-2.9,1.6-5.7,2.4-8.6
		c0.3-1,0.5-2.1,0.9-3.2c-0.6,0-1.1,0-1.5,0c-0.7-0.1-1.1,0.1-1.2,1c-0.2,1.4-0.6,2.9-1,4.3c-0.3,1.5-0.7,3-1.1,4.8
		c-0.7-2.8-1.4-5.4-2-8c-0.5-2.1-0.5-2.1-2.8-2c-0.1,0-0.1,0-0.3,0.1c-0.8,3.2-1.7,6.4-2.6,9.7c-0.8-3.5-1.5-6.8-2.3-10.1
		c-0.9,0.2-1.6,0.3-2.3,0.4c0,0.2,0,0.4,0,0.5C24.8,9.4,25.9,13.2,27,17.1z"/>
	<path fill="#000000" d="M116.9,1.6c0-0.8-0.2-1.1-1-1.1c-0.4,0-0.8-0.1-1.3-0.2c0,1.9,0,3.6,0,5.6c-3.5-2.7-6.9-0.5-7.8,2.2
		c-0.8,2.2-0.8,4.4,0,6.6c0.7,2.1,2.4,3.3,4.6,3.2c1.1-0.1,2.3-0.5,3.4-0.8c0,0,0.1,0.3,0.2,0.6c0.8,0,1.4,0,2.1,0
		c-0.1-1.3-0.2-2.6-0.2-3.9C116.8,9.7,116.8,5.6,116.9,1.6z M114.4,8.7c-0.1,0.8,0,1.6,0,2.5c0,0.7,0,1.4,0,2.2
		c0,1.7-0.6,2.4-2.3,2.6c-1.5,0.2-2.8-0.5-3-2c-0.2-1.7-0.2-3.5,0.1-5.2c0.3-2,2.1-2.7,4-2C114,7.1,114.5,7.6,114.4,8.7z"/>
	<path fill="#000000" d="M88.4,9.8c-1.4,0.3-2.9,0.5-4.2,1c-1.8,0.8-2.5,2.8-1.9,4.8c0.4,1.5,1.8,2.4,3.7,2.5
		c1.6,0.1,2.9-0.4,3.9-1.5c0.6,0.6,1.2,1.2,1.8,1.7c0.5-0.7,0.9-1.2,1.3-1.7c-0.9-0.7-1-1.6-1-2.7c0-2.2,0.1-4.5,0-6.7
		c0-1.4-0.8-2.3-2.1-2.7c-2.6-0.7-5,0-7.2,1.5c0.4,0.6,0.7,1.2,0.9,1.4c1.5-0.4,2.8-1,4.1-1.2c1.2-0.2,1.9,0.5,2.1,1.8
		c0.1,0.5,0,0.9,0,1.5C89.1,9.8,88.8,9.7,88.4,9.8z M89.8,12.3c-0.1,0.1-0.1,0.1-0.2,0.2c0,0.5-0.1,1-0.1,1.5c0,1.2-1,2.1-2.3,2.3
		c-1.1,0.2-2-0.3-2.3-1.3c-0.4-1.3,0-2.8,1.1-3.2c0.9-0.3,1.9-0.5,2.9-0.5C89.2,11.4,89.5,12,89.8,12.3z"/>
	<path fill="#000000" d="M71,9.8c-1.4,0.3-2.9,0.4-4.2,1c-1.8,0.8-2.5,2.8-2,4.8c0.4,1.6,1.8,2.5,3.7,2.6c1.5,0.1,2.8-0.4,3.8-1.4
		c0.5,0.7,1,1.3,1.5,1.9c0.1-0.1,0.3-0.2,0.4-0.4c0.4-0.5,0.8-1,1.2-1.5c-0.1,0-0.2,0-0.3,0c-0.2-0.9-0.6-1.7-0.6-2.6
		c-0.1-1.7,0-3.5,0.1-5.2c0.1-2.5-0.7-4-2.6-4.4c-2.5-0.5-4.7,0.1-6.9,1.6c0.4,0.6,0.7,1.1,1,1.6C67,7.4,67.7,7,68.4,6.7
		c2.8-0.9,3.9-0.1,3.7,3C71.7,9.7,71.4,9.7,71,9.8z M72,13.2c0.2,1.2-0.1,2.2-1.3,2.9c-1.2,0.7-2.6,0.4-3.1-0.5
		c-0.7-1.2-0.3-3,0.9-3.5c0.9-0.4,2-0.5,3.1-0.6c0.2,0,0.5,0.4,0.5,0.6C72.2,12.4,72.1,12.7,72,13.2z"/>
	<path fill="#000000" d="M137.5,6.1c-2.3,2.6-2.2,5.8-1,8.8c1.3,3.3,5.4,4.3,8.2,2.2c1.9-1.4,2.3-3.5,2.6-5.7
		c-0.4-1.4-0.6-2.9-1.2-4.2C144.4,4,139.8,3.4,137.5,6.1z M143.8,14.6c-0.4,1.1-1.3,1.7-2.5,1.7c-1.2,0-2.1-0.6-2.4-1.8
		c-0.3-1.1-0.4-2.2-0.6-3.3c0.2-1,0.3-2.1,0.5-3.1c0.3-1.2,1.1-1.7,2.3-1.7c1.3-0.1,2.2,0.4,2.6,1.5
		C144.5,10.1,144.6,12.4,143.8,14.6z"/>
	<path fill="#000000" d="M56.3,17.7c2.4,0.9,4.6,0.4,6.7-1.3c-0.3-0.5-0.6-0.9-0.9-1.4c-1.7,1.2-3.5,1.7-5.3,0.6
		c-1.3-0.8-1.5-2.2-1.3-3.7c2.6,0,5.1,0,7.9,0c-0.1-1.2-0.1-2.2-0.3-3.2c-0.3-2-1.4-3.5-3.4-4c-2.1-0.6-3.9-0.1-5.4,1.5
		c-1.7,1.9-1.7,4.2-1.5,6.5C53.1,14.9,54,16.9,56.3,17.7z M56.7,6.7c0.8-0.6,1.7-0.7,2.6-0.1c1.3,0.8,1.4,2.1,1.5,3.5
		c-1.8,0-3.5,0-5.3,0C55.4,8.8,55.6,7.6,56.7,6.7z"/>
	<path fill="#000000" d="M15.9,17.7c2.4,0.9,4.6,0.4,6.8-1.2c-0.3-0.5-0.6-1-0.9-1.4c-2.2,1.4-3.9,1.6-5.3,0.5
		c-1.1-0.8-1.5-2.2-1.2-3.8c2.5,0,5.1,0,7.8,0c-0.1-1.3-0.2-2.5-0.4-3.7c-0.4-1.8-1.5-3.1-3.4-3.5c-3.1-0.8-5.9,1-6.6,4.1
		c-0.2,1.2-0.3,2.5-0.2,3.8C12.7,14.8,13.6,16.8,15.9,17.7z M16.6,6.6c0.8-0.5,1.7-0.5,2.5,0.1c1.2,0.8,1.3,2,1.4,3.4
		c-1.8,0-3.5,0-5.4,0C15.2,8.7,15.3,7.4,16.6,6.6z"/>
	<path fill="#000000" d="M180.6,4.6c-1.2-0.1-2.4,0.2-3.4,0.9c-0.3,0.3-0.7,0.5-1.1,0.8c-0.4-2.1-0.6-2.1-2.6-1.1
		c0.1,1.1,0.2,2.2,0.2,3.2c0,2.4,0,4.9,0,7.3c0,2,0.3,2.3,2.4,2.1c0-2.7,0.1-5.4,0-8c-0.1-1.4,0.6-2.1,1.7-2.7c2.1-1,3.3-0.3,3.3,2
		c0,2.5,0,5.1,0,7.6c0,0.4,0,0.7,0,1.1c0.9,0,1.6,0,2.3,0c0-3.6,0.1-7.1,0-10.5C183.3,5.8,182,4.7,180.6,4.6z"/>
	<path fill="#000000" d="M94.4,15.8c0,1.8,0.5,2.2,2.4,1.7c0-2.6,0.1-5.3,0-7.9c-0.1-1.5,0.6-2.2,1.8-2.7c2-0.9,3.1-0.3,3.2,1.9
		c0,2.6,0,5.1,0,7.7c0,0.4,0,0.7,0.1,1.1c0.8,0,1.5,0,2.3,0c0-3.2,0-6.4,0-9.5c0-2.8-2-4.3-4.7-3.4c-0.9,0.3-1.8,0.9-2.7,1.4
		c-0.4-1.9-0.4-1.9-2.6-1.1c0.1,1.2,0.2,2.3,0.3,3.5C94.5,11,94.4,13.4,94.4,15.8z"/>
	<path fill="#000000" d="M3.2,17.7c0-2.6,0-5.2,0-7.8c0-1.9,0.4-2.4,2.1-3.1c1.7-0.7,2.8,0,2.8,1.9c0,2.6,0,5.3,0,7.9
		c0,0.4,0,0.7,0,1.1c0.8,0,1.6,0,2.3,0c0-3.5,0.1-7,0-10.5c0-1.5-1.3-2.5-2.8-2.7c-1.3-0.1-2.4,0.2-3.5,1C3.8,5.8,3.5,6,3.1,6.3
		C2.9,5.6,2.8,5.1,2.6,4.5C1.8,4.7,1.1,4.9,0.4,5.1c0.1,0.6,0.3,1.1,0.3,1.6c0.1,3,0.1,6,0.1,9C0.8,17.7,1,17.9,3.2,17.7z"/>
	<path fill="#000000" d="M155.8,6.7c0,0,0,0.1,0,0.1c-0.9,2.6-1.7,5.2-2.6,7.9c-0.1-0.2-0.2-0.3-0.2-0.3c-1-3-1.9-6.1-2.9-9.1
		c-0.1-0.3-0.4-0.6-0.6-0.6c-0.7,0-1.4,0.2-2.1,0.3c1.5,4.2,2.9,8.2,4.3,12.2c0.2,0.7,0.6,0.8,1.2,0.8c0.6-0.1,1.3,0.2,1.7-0.7
		c0.8-2.4,1.7-4.8,2.6-7.2c0.6-1.7,1.2-3.3,1.8-5C156.5,4.5,156.4,4.6,155.8,6.7z"/>
	<path fill="#000000" d="M188.5,16c0.3-0.5,0.5-0.8,0.7-1.1c1.7-2.5,3.3-4.9,5.1-7.4c0.6-0.9,0.7-1.7,0.5-2.7c-2.9,0-5.8,0-8.7,0
		c0,0.6,0,1.1,0,1.8c2,0,4,0,6.1,0c-2.1,3-4.1,5.8-6.2,8.6c-0.6,0.8-0.7,1.5-0.5,2.5c0.3,0,0.7,0,1,0c2.2,0,4.4,0,6.6,0
		c1.4,0,1.6-0.2,1.9-1.7C192.9,16,190.8,16,188.5,16z"/>
	<path fill="#000000" d="M43.3,15.1c-0.6,0.8-0.8,1.6-0.6,2.7c2.5,0,5,0,7.5,0c1.5,0,1.6-0.1,1.9-1.7c-2.1,0-4.2,0-6.5,0
		c0.3-0.4,0.4-0.7,0.6-1c1.7-2.5,3.4-5.1,5.2-7.5c0.6-0.8,0.7-1.7,0.5-2.6c-2.9,0-5.9,0-8.8,0c0,0.6,0,1.1,0,1.8c2,0,4,0,6.1,0
		c-0.2,0.4-0.4,0.6-0.6,0.9C46.9,10,45.2,12.6,43.3,15.1z"/>
	<path fill="#000000" d="M166,6.5c0.5-0.2,0.7-1,1.2-1.7c-1.4,0-2.3,0-3.4,0c0.1-1.3,0.1-2.5,0.2-3.8c-0.9,0.2-1.6,0.4-2.4,0.6
		c-0.1,1.1-0.1,2.1-0.2,3.2c-1.4-0.1-1.2,1-1.4,1.8c0.5,0,1,0.1,1.5,0.1c0,0.4,0,0.8,0,1.2c0,2.5,0,5.1,0,7.6c0,1.6,0.8,2.4,2.3,2.7
		c0.6,0.1,1.3,0.1,1.9,0c1.4-0.3,1.4-0.4,0.9-1.8c-0.1,0-0.3,0-0.4,0.1c-1.9,0.3-2.4-0.2-2.4-2c0-1.5,0-2.9,0-4.4c0-1.1,0-2.2,0-3.3
		C164.6,6.6,165.4,6.8,166,6.5z"/>
	<path fill="#000000" d="M77.1,12c0,1.2,0,2.5,0.1,3.7c0.2,2.2,1.8,3,3.9,2c-0.2-0.6-0.2-1.1-0.9-1.6c-0.5-0.3-0.6-1.4-0.6-2.1
		c-0.1-4,0-8.1,0-12.1c0-0.6-0.1-1.2-0.1-1.9c-0.9,0.2-1.7,0.4-2.4,0.5c0.1,1.1,0.1,2,0.1,3C77.1,6.3,77.1,9.2,77.1,12z"/>
	<path fill="#000000" d="M169.4,15.7c-0.4,0.4-0.2,1.3-0.3,2c0.9,0,1.6,0,2.5,0c-0.1-0.8,0-1.7-0.4-2.1
		C170.9,15.3,169.8,15.3,169.4,15.7z"/>
	<path fill="#000000" d="M119.5,15.6c0,0.7,0,1.4,0,2.2c0.4,0,0.7,0,1.1,0c0.4,0,0.7,0,1.1,0C121.9,15.4,121.8,15.2,119.5,15.6z"/>
</g>
</svg>
